<svg xmlns="http://www.w3.org/2000/svg" version="1.1" width="128" height="128">
  <path style="fill:#2a5caa" d="m71 61.4c11-1.2 16.2 7 16.2 13.1-0 2.7 .5 9.4-19.3 18.2-7.1-11.5-18.4-14-15.2-11.8 4.3 2.7 6.9 20.4 10.7 16.9-3.7 1.5 3 11.5 1.8 16.7-.7 3.4 5.3-4.5 3.8-16.3 51.2-9.3 61.9-49.7 29-67.6-2.4-.9-3.7-4.1-.5-6.8 9.5-7.9 15.4-2 13.6-5.2-7.5-10.7-26.1-6.8-42.3 6.9-32.2 1.7-46.7 14.7-48.9 35.5-1 3.5-7.2 7.8-8.3 11 .9 3.1 7.4 1.1 12.9 .5 8.8 .3 19.4-5.1 28-7.1 1.4-.2 4 5.4 6.8 8 3.8 3.6 15.3 5.4 16.6 3 1.1-2.2-4.2-6.1-4.8-15z"/>
</svg>
