<?xml version="1.0" encoding="UTF-8" standalone="no"?>
<!-- Created with Inkscape (http://www.inkscape.org/) -->

<svg
   xmlns:dc="http://purl.org/dc/elements/1.1/"
   xmlns:cc="http://creativecommons.org/ns#"
   xmlns:rdf="http://www.w3.org/1999/02/22-rdf-syntax-ns#"
   xmlns:svg="http://www.w3.org/2000/svg"
   xmlns="http://www.w3.org/2000/svg"
   version="1.1"
   width="128"
   height="128"
   id="svg2">
  <defs
     id="defs4" />
  <metadata
     id="metadata7">
    <rdf:RDF>
      <cc:Work
         rdf:about="">
        <dc:format>image/svg+xml</dc:format>
        <dc:type
           rdf:resource="http://purl.org/dc/dcmitype/StillImage" />
        <dc:title></dc:title>
      </cc:Work>
    </rdf:RDF>
  </metadata>
  <g
     transform="translate(-162.65498,-899.89996)"
     id="layer1">
    <g
       id="text2996-7"
       style="font-size:81.99330902px;font-style:normal;font-weight:normal;line-height:125%;letter-spacing:0px;word-spacing:0px;fill:#2a5caa;fill-opacity:1;stroke:none;font-family:Sans" />
    <path
       d="m 233.56937,961.42195 c 11.00476,-1.2369 16.18473,6.9736 16.19551,13.0639 -0.0456,2.7356 0.46271,9.4228 -19.33638,18.2458 -7.09586,-11.5206 -18.3798,-13.9811 -15.21039,-11.7909 4.30594,2.6801 6.90523,20.37705 10.66027,16.88375 -3.69592,1.508 2.95543,11.4614 1.76635,16.6872 -0.74709,3.4307 5.26211,-4.5122 3.80573,-16.3088 51.20202,-9.33031 61.94134,-49.68138 29.04142,-67.58651 -2.35304,-0.86876 -3.70327,-4.13784 -0.51229,-6.8024 9.4653,-7.90379 15.441,-1.9749 13.6301,-5.17963 -7.51156,-10.71001 -26.13375,-6.82256 -42.32505,6.93854 -32.154,1.70411 -46.65272,14.69305 -48.91667,35.50215 -0.98241,3.488 -7.16246,7.7792 -8.32624,10.986 0.86192,3.1173 7.41921,1.0997 12.88901,0.461 8.83233,0.2857 19.42697,-5.081 28.0152,-7.1363 1.3514,-0.1793 3.97476,5.3935 6.78401,8.0171 3.80755,3.5559 15.3126,5.3707 16.59626,3.0038 1.14839,-2.2359 -4.20882,-6.1115 -4.75684,-14.9847 z"
       id="path5894-9"
       style="fill:#2a5caa;fill-opacity:1;stroke:none" />
  </g>
</svg>
