<?xml version="1.0" encoding="UTF-8" standalone="no"?>
<!-- Created with Inkscape (http://www.inkscape.org/) -->

<svg
   xmlns:dc="http://purl.org/dc/elements/1.1/"
   xmlns:cc="http://creativecommons.org/ns#"
   xmlns:rdf="http://www.w3.org/1999/02/22-rdf-syntax-ns#"
   xmlns:svg="http://www.w3.org/2000/svg"
   xmlns="http://www.w3.org/2000/svg"
   version="1.1"
   width="288.3862"
   height="122.83161"
   id="svg2">
  <defs
     id="defs4" />
  <metadata
     id="metadata7">
    <rdf:RDF>
      <cc:Work
         rdf:about="">
        <dc:format>image/svg+xml</dc:format>
        <dc:type
           rdf:resource="http://purl.org/dc/dcmitype/StillImage" />
        <dc:title></dc:title>
      </cc:Work>
    </rdf:RDF>
  </metadata>
  <g
     transform="translate(0.50472175,-905.06835)"
     id="layer1">
    <g
       id="text2996-7"
       style="font-size:81.99330902px;font-style:normal;font-weight:normal;line-height:125%;letter-spacing:0px;word-spacing:0px;fill:#2a5caa;fill-opacity:1;stroke:none;font-family:Sans">
      <path
         d="m 44.219445,991.47522 0,9.10128 -34.7241667,0 0,-59.28119 11.0280997,0 0,50.17991 23.696067,0"
         id="path5967"
         style="letter-spacing:-1.64155483px;fill:#2a5caa" />
      <path
         d="m 85.093983,958.51391 0,42.06259 -6.190495,0 c -1.339258,0 -2.186521,-0.61497 -2.541793,-1.84487 l -0.696943,-3.36173 c -1.721889,1.7492 -3.621399,3.17041 -5.698535,4.26365 -2.077188,1.06595 -4.523319,1.59885 -7.338401,1.59885 -2.295829,0 -4.331994,-0.3826 -6.108501,-1.1479 -1.749202,-0.79258 -3.22508,-1.89949 -4.427639,-3.32071 -1.202576,-1.42121 -2.118167,-3.10208 -2.746776,-5.04259 -0.601289,-1.96783 -0.901931,-4.12698 -0.901926,-6.47747 l 0,-26.72982 10.126173,0 0,26.72982 c -1.4e-5,2.56913 0.587604,4.5643 1.762857,5.98551 1.20255,1.39389 2.992736,2.09084 5.370561,2.09083 1.749167,10e-6 3.389032,-0.38263 4.919599,-1.14791 1.530513,-0.79259 2.97906,-1.87217 4.345645,-3.23873 l 0,-30.41952 10.126174,0"
         id="path5969"
         style="letter-spacing:-3.28310966px;fill:#2a5caa" />
      <path
         d="m 101.40343,965.81131 c 1.31188,-2.51442 2.86975,-4.48226 4.67362,-5.90351 1.80383,-1.44851 3.93566,-2.17278 6.39548,-2.17283 1.94048,5e-5 3.49835,0.42368 4.67362,1.2709 l -0.65595,7.58438 c -0.13668,0.49199 -0.34167,0.8473 -0.61495,1.06591 -0.24601,0.19135 -0.58765,0.28701 -1.02491,0.28698 -0.41,3e-5 -1.02495,-0.0683 -1.84485,-0.20498 -0.79263,-0.13663 -1.57157,-0.20495 -2.33681,-0.20499 -1.1206,4e-5 -2.11819,0.16402 -2.99276,0.49196 -0.87461,0.32801 -1.66722,0.8063 -2.37781,1.43489 -0.68329,0.60131 -1.29824,1.33925 -1.84484,2.21382 -0.51931,0.87462 -1.01127,1.8722 -1.47588,2.99275 l 0,25.90991 -10.126178,0 0,-42.06259 5.944515,0 c 1.03857,4e-5 1.762844,0.19136 2.172823,0.57395 0.40995,0.35535 0.68326,1.01129 0.81993,1.96784 l 0.61495,4.75561"
         id="path5971"
         style="letter-spacing:2.51999998px;fill:#2a5caa" />
      <path
         d="m 163.16744,958.51391 -22.91713,53.62359 c -0.30066,0.7106 -0.69696,1.2436 -1.1889,1.5989 -0.46465,0.3826 -1.18892,0.5739 -2.17283,0.574 l -7.54338,0 7.87136,-16.89067 -17.01361,-38.90582 8.89627,0 c 0.79259,4e-5 1.40754,0.19136 1.84485,0.57395 0.46462,0.38268 0.80626,0.81998 1.02492,1.3119 l 8.93727,21.81022 c 0.30062,0.73795 0.5466,1.47589 0.73794,2.21382 0.21862,0.73795 0.42361,1.48955 0.61495,2.25481 0.24595,-0.76526 0.49193,-1.51686 0.73794,-2.25481 0.24595,-0.76526 0.51926,-1.51686 0.81993,-2.25482 l 8.44531,-21.76922 c 0.21862,-0.54659 0.57392,-0.99755 1.06591,-1.35289 0.51926,-0.35527 1.09321,-0.53292 1.72186,-0.53296 l 8.11734,0"
         id="path5973"
         style="letter-spacing:0px;fill:#2a5caa" />
    </g>
    <path
       d="m 232.18262,964.00615 c 11.00476,-1.2369 16.18473,6.9736 16.19551,13.0639 -0.0456,2.7356 0.46271,9.4228 -19.33638,18.2458 -7.09586,-11.5206 -18.3798,-13.9811 -15.21039,-11.7909 4.30594,2.6801 6.90523,20.37705 10.66027,16.88375 -3.69592,1.508 2.95543,11.4614 1.76635,16.6872 -0.74709,3.4307 5.26211,-4.5122 3.80573,-16.3088 51.20202,-9.33031 61.94134,-49.68138 29.04142,-67.58651 -2.35304,-0.86876 -3.70327,-4.13784 -0.51229,-6.8024 9.4653,-7.90379 15.441,-1.9749 13.6301,-5.17963 -7.51156,-10.71001 -26.13375,-6.82256 -42.32505,6.93854 -32.154,1.70411 -46.65272,14.69305 -48.91667,35.50215 -0.98241,3.488 -7.16246,7.7792 -8.32624,10.986 0.86192,3.1173 7.41921,1.0997 12.88901,0.461 8.83233,0.2857 19.42697,-5.081 28.0152,-7.1363 1.3514,-0.1793 3.97476,5.3935 6.78401,8.0171 3.80755,3.5559 15.3126,5.3707 16.59626,3.0038 1.14839,-2.2359 -4.20882,-6.1115 -4.75684,-14.9847 z"
       id="path5894-9"
       style="fill:#2a5caa;fill-opacity:1;stroke:none" />
  </g>
</svg>
