<svg xmlns="http://www.w3.org/2000/svg" version="1.1" width="288.4" height="122.8">
  <g style="fill:#2a5caa">
    <path d="m44.7 86.5 0 9.1-34.7 0 0-59.3 11 0 0 50.2 23.7 0"/>
    <path d="m85.6 53.5 0 42.1-6.2 0c-1.3 0-2.2-.6-2.5-1.8 l-.7-3.4c-1.7 1.7-3.6 3.2-5.7 4.3-2.1 1.1-4.5 1.6-7.3 1.6-2.3 0-4.3-.4-6.1-1.1-1.7-.8-3.2-1.9-4.4-3.3-1.2-1.4-2.1-3.1-2.7-5-.6-2-.9-4.1-.9-6.5l0-26.7 10.1 0 0 26.7c0 2.6 .6 4.6 1.8 6 1.2 1.4 3 2.1 5.4 2.1 1.7 0 3.4-.4 4.9-1.1 1.5-.8 3-1.9 4.3-3.2l0-30.4 10.1 0"/>
    <path d="m101.9 60.8c1.3-2.5 2.9-4.5 4.7-5.9 1.8-1.4 3.9-2.2 6.4-2.2 1.9 0 3.5 0.4 4.7 1.3l-.7 7.6c-.1 0.5-.3 0.8-.6 1.1-.2 0.2-.6 0.3-1 0.3-.4 0-1-.1-1.8-.2-.8-.1-1.6-.2-2.3-.2-1.1 0-2.1 0.2-3 0.5-.9 0.3-1.7 0.8-2.4 1.4-.7 0.6-1.3 1.3-1.8 2.2-.5 0.9-1 1.9-1.5 3l0 25.9-10.1 0 0-42.1 5.9 0c1 0 1.8 0.2 2.2 0.6 0.4 0.4 0.7 1 0.8 2l0.6 4.8"/>
    <path d="m163.7 53.5-22.9 53.6c-.3 0.7-.7 1.2-1.2 1.6-.5 0.4-1.2 0.6-2.2 0.6l-7.5 0 7.9-16.9-17-38.9 8.9 0c0.8 0 1.4 0.2 1.8 0.6 0.5 0.4 0.8 0.8 1 1.3l8.9 21.8c0.3 0.7 0.5 1.5 0.7 2.2 0.2 0.7 0.4 1.5 0.6 2.3 0.2-.8 0.5-1.5 0.7-2.3 0.2-.8 0.5-1.5 0.8-2.3l8.4-21.8c0.2-.5 0.6-1 1.1-1.4 0.5-.4 1.1-.5 1.7-.5l8.1 0"/>
    <path d="m232.7 59c11-1.2 16.2 7 16.2 13.1-0 2.7 .5 9.4-19.3 18.2-7.1-11.5-18.4-14-15.2-11.8 4.3 2.7 6.9 20.4 10.7 16.9-3.7 1.5 3 11.5 1.8 16.7-.7 3.4 5.3-4.5 3.8-16.3 51.2-9.3 61.9-49.7 29-67.6-2.4-.9-3.7-4.1-.5-6.8 9.5-7.9 15.4-2 13.6-5.2-7.5-10.7-26.1-6.8-42.3 6.9-32.2 1.7-46.7 14.7-48.9 35.5-1 3.5-7.2 7.8-8.3 11 .9 3.1 7.4 1.1 12.9 .5 8.8 .3 19.4-5.1 28-7.1 1.4-.2 4 5.4 6.8 8 3.8 3.6 15.3 5.4 16.6 3 1.1-2.2-4.2-6.1-4.8-15z"/>
  </g>
</svg>
